<mxfile host="Electron" agent="Mozilla/5.0 (X11; Linux x86_64) AppleWebKit/537.36 (KHTML, like Gecko) draw.io/26.1.1 Chrome/132.0.6834.210 Electron/34.5.0 Safari/537.36" version="26.1.1">
  <diagram name="第 1 页" id="sRh7GxcKh70PubXgSeGX">
    <mxGraphModel dx="626" dy="566" grid="1" gridSize="10" guides="0" tooltips="1" connect="1" arrows="1" fold="1" page="1" pageScale="1" pageWidth="1169" pageHeight="827" math="0" shadow="1">
      <root>
        <mxCell id="0" />
        <mxCell id="1" parent="0" />
        <mxCell id="Bd-Iy1mm5NtcOuBuhYLj-15" style="edgeStyle=orthogonalEdgeStyle;rounded=0;orthogonalLoop=1;jettySize=auto;html=1;entryX=1;entryY=0.5;entryDx=0;entryDy=0;" edge="1" parent="1" source="Bd-Iy1mm5NtcOuBuhYLj-1" target="Bd-Iy1mm5NtcOuBuhYLj-13">
          <mxGeometry relative="1" as="geometry" />
        </mxCell>
        <mxCell id="Bd-Iy1mm5NtcOuBuhYLj-18" style="edgeStyle=orthogonalEdgeStyle;rounded=0;orthogonalLoop=1;jettySize=auto;html=1;entryX=1;entryY=0.5;entryDx=0;entryDy=0;" edge="1" parent="1" source="Bd-Iy1mm5NtcOuBuhYLj-1" target="Bd-Iy1mm5NtcOuBuhYLj-17">
          <mxGeometry relative="1" as="geometry" />
        </mxCell>
        <mxCell id="Bd-Iy1mm5NtcOuBuhYLj-1" value="LinearTableModel" style="rounded=0;whiteSpace=wrap;html=1;" vertex="1" parent="1">
          <mxGeometry x="410" y="100" width="120" height="20" as="geometry" />
        </mxCell>
        <mxCell id="Bd-Iy1mm5NtcOuBuhYLj-27" style="edgeStyle=orthogonalEdgeStyle;rounded=0;orthogonalLoop=1;jettySize=auto;html=1;" edge="1" parent="1" source="Bd-Iy1mm5NtcOuBuhYLj-2" target="Bd-Iy1mm5NtcOuBuhYLj-16">
          <mxGeometry relative="1" as="geometry" />
        </mxCell>
        <mxCell id="Bd-Iy1mm5NtcOuBuhYLj-2" value="QkAbstractListModel" style="rounded=0;whiteSpace=wrap;html=1;" vertex="1" parent="1">
          <mxGeometry x="240" y="60" width="140" height="20" as="geometry" />
        </mxCell>
        <mxCell id="Bd-Iy1mm5NtcOuBuhYLj-14" style="edgeStyle=orthogonalEdgeStyle;rounded=0;orthogonalLoop=1;jettySize=auto;html=1;entryX=0.5;entryY=0;entryDx=0;entryDy=0;" edge="1" parent="1" source="Bd-Iy1mm5NtcOuBuhYLj-3" target="Bd-Iy1mm5NtcOuBuhYLj-1">
          <mxGeometry relative="1" as="geometry" />
        </mxCell>
        <mxCell id="Bd-Iy1mm5NtcOuBuhYLj-3" value="QkAbstractTableModel" style="rounded=0;whiteSpace=wrap;html=1;" vertex="1" parent="1">
          <mxGeometry x="400" y="60" width="140" height="20" as="geometry" />
        </mxCell>
        <mxCell id="Bd-Iy1mm5NtcOuBuhYLj-11" style="edgeStyle=orthogonalEdgeStyle;rounded=0;orthogonalLoop=1;jettySize=auto;html=1;entryX=0.5;entryY=0;entryDx=0;entryDy=0;" edge="1" parent="1" source="Bd-Iy1mm5NtcOuBuhYLj-4" target="Bd-Iy1mm5NtcOuBuhYLj-2">
          <mxGeometry relative="1" as="geometry" />
        </mxCell>
        <mxCell id="Bd-Iy1mm5NtcOuBuhYLj-4" value="QAbstractListModel" style="rounded=0;whiteSpace=wrap;html=1;fillColor=#647687;strokeColor=#314354;fontColor=#ffffff;" vertex="1" parent="1">
          <mxGeometry x="240" y="20" width="140" height="20" as="geometry" />
        </mxCell>
        <mxCell id="Bd-Iy1mm5NtcOuBuhYLj-12" style="edgeStyle=orthogonalEdgeStyle;rounded=0;orthogonalLoop=1;jettySize=auto;html=1;entryX=0.5;entryY=0;entryDx=0;entryDy=0;" edge="1" parent="1" source="Bd-Iy1mm5NtcOuBuhYLj-5" target="Bd-Iy1mm5NtcOuBuhYLj-3">
          <mxGeometry relative="1" as="geometry" />
        </mxCell>
        <mxCell id="Bd-Iy1mm5NtcOuBuhYLj-5" value="QAbstractTableModel" style="rounded=0;whiteSpace=wrap;html=1;fillColor=#647687;strokeColor=#314354;fontColor=#ffffff;" vertex="1" parent="1">
          <mxGeometry x="400" y="20" width="140" height="20" as="geometry" />
        </mxCell>
        <mxCell id="Bd-Iy1mm5NtcOuBuhYLj-13" value="FunctionalLinearTableModel" style="rounded=0;whiteSpace=wrap;html=1;" vertex="1" parent="1">
          <mxGeometry x="270" y="180" width="180" height="20" as="geometry" />
        </mxCell>
        <mxCell id="Bd-Iy1mm5NtcOuBuhYLj-16" value="MutableListListModel" style="rounded=0;whiteSpace=wrap;html=1;" vertex="1" parent="1">
          <mxGeometry x="240" y="100" width="140" height="20" as="geometry" />
        </mxCell>
        <mxCell id="Bd-Iy1mm5NtcOuBuhYLj-17" value="MutableListTableModel" style="rounded=0;whiteSpace=wrap;html=1;" vertex="1" parent="1">
          <mxGeometry x="290" y="140" width="160" height="20" as="geometry" />
        </mxCell>
        <mxCell id="Bd-Iy1mm5NtcOuBuhYLj-25" style="edgeStyle=orthogonalEdgeStyle;rounded=0;orthogonalLoop=1;jettySize=auto;html=1;entryX=0;entryY=0.5;entryDx=0;entryDy=0;" edge="1" parent="1" source="Bd-Iy1mm5NtcOuBuhYLj-20" target="Bd-Iy1mm5NtcOuBuhYLj-16">
          <mxGeometry relative="1" as="geometry">
            <Array as="points">
              <mxPoint x="170" y="110" />
            </Array>
          </mxGeometry>
        </mxCell>
        <mxCell id="Bd-Iy1mm5NtcOuBuhYLj-26" style="edgeStyle=orthogonalEdgeStyle;rounded=0;orthogonalLoop=1;jettySize=auto;html=1;entryX=0;entryY=0.5;entryDx=0;entryDy=0;" edge="1" parent="1" source="Bd-Iy1mm5NtcOuBuhYLj-20" target="Bd-Iy1mm5NtcOuBuhYLj-17">
          <mxGeometry relative="1" as="geometry">
            <Array as="points">
              <mxPoint x="170" y="150" />
            </Array>
          </mxGeometry>
        </mxCell>
        <mxCell id="Bd-Iy1mm5NtcOuBuhYLj-20" value="MutableList" style="rounded=0;whiteSpace=wrap;html=1;fillColor=#647687;strokeColor=#314354;fontColor=#ffffff;" vertex="1" parent="1">
          <mxGeometry x="120" y="20" width="100" height="20" as="geometry" />
        </mxCell>
      </root>
    </mxGraphModel>
  </diagram>
</mxfile>
